# xmcd
#
# Track frame offsets:
#	150
#	12782
#	26769
#	41619
#	53703
#	66825
#	81352
#	95764
#	111556
#	122716
#	137220
#
# Disc length: 2086 seconds
#
# Revision: 0
# Processed by: cddbd v1.5.2PL0 Copyright (c) Steve Scherf et al.
# Submitted via: EasyCDDAExtractor 4.6.0.1
#
DISCID=9b08240b
DTITLE=Rick Trevino
DYEAR=1994
DGENRE=Country
TTITLE0=Honky Tonk Crowd
TTITLE1=Doctor Time
TTITLE2=She Can't Say I Didn't Cry
TTITLE3=Walk Out Backwards
TTITLE4=Life Can Turn On A Dime
TTITLE5=Just Enough Rope
TTITLE6=She Just Left Me Lounge
TTITLE7=What I'll Know Then
TTITLE8=It Only Hurts When I Laugh
TTITLE9=Un Momento Alla
TTITLE10=Just Enough Rope (Bilingual)
EXTD=
EXTT0=
EXTT1=
EXTT2=
EXTT3=
EXTT4=
EXTT5=
EXTT6=
EXTT7=
EXTT8=
EXTT9=
EXTT10=
PLAYORDER=
